<?xml version="1.0" encoding="utf-8"?><svg version="1.1" id="Layer_1" fill="white" xmlns="http://www.w3.org/2000/svg" xmlns:xlink="http://www.w3.org/1999/xlink" x="0px" y="0px" viewBox="0 0 122.88 101.67" style="enable-background:new 0 0 122.88 101.67" xml:space="preserve"><style type="text/css">.st0{fill-rule:evenodd;clip-rule:evenodd;}</style><g><path class="st0" d="M67.14,55.68h21.15c1.13,0,2.05,0.92,2.05,2.05v41.9c0,1.12-0.92,2.05-2.05,2.05l-21.15,0 c-1.12,0-2.05-0.92-2.05-2.05v-41.9C65.09,56.6,66.01,55.68,67.14,55.68L67.14,55.68z M2.05,0H23.2c1.13,0,2.05,0.93,2.05,2.05 v97.58c0,1.12-0.93,2.05-2.05,2.05H2.05c-1.12,0-2.05-0.92-2.05-2.05V2.05C0,0.92,0.92,0,2.05,0L2.05,0z M99.68,76.33h21.15 c1.13,0,2.05,0.93,2.05,2.05v21.25c0,1.12-0.92,2.05-2.05,2.05H99.68c-1.12,0-2.05-0.92-2.05-2.05V78.38 C97.64,77.25,98.56,76.33,99.68,76.33L99.68,76.33L99.68,76.33z M34.59,31.5h21.15c1.13,0,2.05,0.93,2.05,2.05v66.07 c0,1.12-0.93,2.05-2.05,2.05H34.59c-1.12,0-2.05-0.92-2.05-2.05V33.55C32.54,32.42,33.47,31.5,34.59,31.5L34.59,31.5z"/></g></svg>